<svg width="106" height="106" viewBox="0 0 106 106" fill="none" xmlns="http://www.w3.org/2000/svg">
<path d="M4.19879 10.5095L93.0102 14.5079L94.9671 105.5H0.5V14.2354L4.19879 10.5095Z" fill="black" stroke="black"/>
<path d="M96.5 105.5H1.19799L92.0729 13.6426L96.5 82.0162V105.5Z" fill="#F3FF63" stroke="black"/>
<rect x="3.96875" y="10.5" width="92.5294" height="92.5294" fill="#F3FF63" stroke="black"/>
<path d="M76.1817 35.1517V39.8001H83.6781V44.1212H76.1817V49.1624H84.6602V53.6472H70.584V30.667H84.6602V35.1517H76.1817Z" fill="black"/>
<path d="M60.9478 53.6472L56.1684 44.9723H54.8263V53.6472H49.2285V30.667H58.6235C60.4349 30.667 61.9735 30.9834 63.2392 31.6163C64.5268 32.2492 65.487 33.1221 66.1199 34.2351C66.7528 35.3263 67.0693 36.5484 67.0693 37.9015C67.0693 39.4291 66.6328 40.7931 65.7598 41.9934C64.9087 43.1937 63.643 44.0448 61.9625 44.5468L67.2657 53.6472H60.9478ZM54.8263 41.0113H58.2962C59.3219 41.0113 60.0857 40.7604 60.5877 40.2584C61.1114 39.7565 61.3733 39.0472 61.3733 38.1306C61.3733 37.2577 61.1114 36.5703 60.5877 36.0683C60.0857 35.5664 59.3219 35.3154 58.2962 35.3154H54.8263V41.0113Z" fill="black"/>
<path d="M45.172 30.667V53.6472H39.5742V30.667H45.172Z" fill="black"/>
<path d="M35.5339 30.667V53.6472H29.9362V44.1867H21.2286V53.6472H15.6309V30.667H21.2286V39.6692H29.9362V30.667H35.5339Z" fill="black"/>
<path d="M51.2774 63.9901V68.6385H82.1562V72.9596H51.2774V78.0008H84.697V82.4855H45.6797V59.5054H84.697V63.9901H51.2774Z" fill="black"/>
<path d="M41.6554 59.5054V82.4855H36.0577V68.704L30.9182 82.4855H26.4008L21.2286 68.6713V82.4855H15.6309V59.5054H22.2434L28.6922 75.4147L35.0756 59.5054H41.6554Z" fill="black"/>
</svg>
