<svg width="542" height="188" viewBox="0 0 542 188" fill="none" xmlns="http://www.w3.org/2000/svg">
<path d="M507 143.04C507 138.84 508.38 135.48 511.14 132.96C514.02 130.32 517.38 129 521.22 129C525.66 129 529.14 130.32 531.66 132.96C534.3 135.48 535.62 138.84 535.62 143.04C535.62 147.24 534.18 150.66 531.3 153.3C528.42 155.82 525.06 157.08 521.22 157.08C516.9 157.08 513.42 155.82 510.78 153.3C508.26 150.66 507 147.24 507 143.04Z" fill="black"/>
<path d="M204.941 179.38C208.781 173.5 211.361 168.88 212.681 165.52C214.001 162.28 214.661 159.94 214.661 158.5C214.661 156.7 214.121 155.08 213.041 153.64C211.961 152.2 210.881 150.58 209.801 148.78C208.721 146.98 208.181 144.64 208.181 141.76C208.181 137.2 209.681 133.72 212.681 131.32C215.681 128.92 219.041 127.72 222.761 127.72C225.041 127.72 227.261 128.26 229.421 129.34C231.581 130.42 233.321 132.1 234.641 134.38C236.081 136.66 236.801 139.6 236.801 143.2C236.801 148.12 235.121 154.18 231.761 161.38C228.401 168.7 222.521 176.8 214.121 185.68L204.941 179.38Z" fill="black"/>
<path d="M191.747 40.2398L175.907 45.6398L178.607 41.6798V140.14L175.907 136.36L191.747 141.04V154H139.547V141.04L155.207 136.54L152.867 140.14V41.6798L156.107 45.6398L139.547 41.1398V28.1798L191.747 27.2798V40.2398Z" fill="black"/>
<path d="M78.1202 28.1798L130.32 27.2798V40.2398L114.3 45.6398L117.18 39.1598V104.5C117.18 110.62 116.58 116.32 115.38 121.6C114.3 126.76 112.5 131.5 109.98 135.82C107.46 140.02 104.22 143.68 100.26 146.8C96.3002 149.8 91.4402 152.14 85.6802 153.82C80.0402 155.38 73.5002 156.16 66.0602 156.16C56.1002 156.16 48.0002 154.96 41.7602 152.56C35.5202 150.04 30.6602 146.86 27.1802 143.02C23.7002 139.06 21.1802 134.86 19.6202 130.42C18.1802 125.86 17.2802 121.54 16.9202 117.46C16.6802 113.26 16.5602 109.72 16.5602 106.84V39.3398L19.4402 45.4598L3.24023 41.1398V28.1798L55.4402 27.2798V40.2398L39.7802 45.6398L42.3002 39.3398V106.84C42.3002 109.96 42.4202 113.02 42.6602 116.02C43.0202 118.9 43.6202 121.6 44.4602 124.12C45.3002 126.52 46.5602 128.68 48.2402 130.6C50.0402 132.4 52.3802 133.84 55.2602 134.92C58.2602 135.88 61.9802 136.36 66.4202 136.36C70.9802 136.36 74.7602 135.82 77.7602 134.74C80.7602 133.66 83.1602 132.16 84.9602 130.24C86.8802 128.2 88.2602 125.86 89.1002 123.22C90.0602 120.58 90.6602 117.7 90.9002 114.58C91.2602 111.34 91.4402 107.98 91.4402 104.5V39.1598L93.7802 45.0998L78.1202 41.1398V28.1798Z" fill="black"/>
<mask id="path-5-inside-1_197_2747" fill="white">
<path fill-rule="evenodd" clip-rule="evenodd" d="M374.08 27L321.88 27.9V40.86L335.2 44.2283V104.22C335.2 107.7 335.02 111.06 334.66 114.3C334.42 117.42 333.82 120.3 332.86 122.94C332.02 125.58 330.64 127.92 328.72 129.96C326.92 131.88 324.52 133.38 321.52 134.46C318.52 135.54 314.74 136.08 310.18 136.08C305.74 136.08 302.02 135.6 299.02 134.64C296.14 133.56 293.8 132.12 292 130.32C290.32 128.4 289.06 126.24 288.22 123.84C287.38 121.32 286.78 118.62 286.42 115.74C286.18 112.74 286.06 109.68 286.06 106.56V44.491L299.2 39.96V27L247 27.9V40.86L260.32 44.412V106.56C260.32 109.44 260.44 112.98 260.68 117.18C261.04 121.26 261.94 125.58 263.38 130.14C264.94 134.58 267.46 138.78 270.94 142.74C274.42 146.58 279.28 149.76 285.52 152.28C291.76 154.68 299.86 155.88 309.82 155.88C317.26 155.88 323.8 155.1 329.44 153.54C335.2 151.86 340.06 149.52 344.02 146.52C347.98 143.4 351.22 139.74 353.74 135.54C356.26 131.22 358.06 126.48 359.14 121.32C360.34 116.04 360.94 110.34 360.94 104.22V44.3892L374.08 39.96V27ZM486.748 137.585L450.893 87.9282L483.094 44.4346L494.42 39.96V27L449.24 27.9V40.86L460.515 43.9224L439.107 74.1029L417.817 43.4809L429.26 39.96V27L377.24 27.9V40.86L387.33 43.3497L420.983 90.3369L386.376 137.04L375.08 140.76V153.72H420.98V140.76L409.578 137.221L433.004 103.939L456.696 136.991L443.66 140.76V153.72H496.76V140.76L486.748 137.585Z"/>
</mask>
<path fill-rule="evenodd" clip-rule="evenodd" d="M374.08 27L321.88 27.9V40.86L335.2 44.2283V104.22C335.2 107.7 335.02 111.06 334.66 114.3C334.42 117.42 333.82 120.3 332.86 122.94C332.02 125.58 330.64 127.92 328.72 129.96C326.92 131.88 324.52 133.38 321.52 134.46C318.52 135.54 314.74 136.08 310.18 136.08C305.74 136.08 302.02 135.6 299.02 134.64C296.14 133.56 293.8 132.12 292 130.32C290.32 128.4 289.06 126.24 288.22 123.84C287.38 121.32 286.78 118.62 286.42 115.74C286.18 112.74 286.06 109.68 286.06 106.56V44.491L299.2 39.96V27L247 27.9V40.86L260.32 44.412V106.56C260.32 109.44 260.44 112.98 260.68 117.18C261.04 121.26 261.94 125.58 263.38 130.14C264.94 134.58 267.46 138.78 270.94 142.74C274.42 146.58 279.28 149.76 285.52 152.28C291.76 154.68 299.86 155.88 309.82 155.88C317.26 155.88 323.8 155.1 329.44 153.54C335.2 151.86 340.06 149.52 344.02 146.52C347.98 143.4 351.22 139.74 353.74 135.54C356.26 131.22 358.06 126.48 359.14 121.32C360.34 116.04 360.94 110.34 360.94 104.22V44.3892L374.08 39.96V27ZM486.748 137.585L450.893 87.9282L483.094 44.4346L494.42 39.96V27L449.24 27.9V40.86L460.515 43.9224L439.107 74.1029L417.817 43.4809L429.26 39.96V27L377.24 27.9V40.86L387.33 43.3497L420.983 90.3369L386.376 137.04L375.08 140.76V153.72H420.98V140.76L409.578 137.221L433.004 103.939L456.696 136.991L443.66 140.76V153.72H496.76V140.76L486.748 137.585Z" fill="white"/>
<path d="M321.88 27.9L321.811 23.9006L317.88 23.9684V27.9H321.88ZM374.08 27H378.08V22.9304L374.011 23.0006L374.08 27ZM321.88 40.86H317.88V43.9744L320.899 44.7379L321.88 40.86ZM335.2 44.2283H339.2V41.1139L336.181 40.3503L335.2 44.2283ZM334.66 114.3L330.684 113.858L330.677 113.926L330.672 113.993L334.66 114.3ZM332.86 122.94L329.101 121.573L329.073 121.65L329.048 121.727L332.86 122.94ZM328.72 129.96L325.807 127.219L325.802 127.224L328.72 129.96ZM299.02 134.64L297.616 138.385L297.707 138.42L297.801 138.45L299.02 134.64ZM292 130.32L288.99 132.954L289.077 133.054L289.172 133.148L292 130.32ZM288.22 123.84L284.425 125.105L284.435 125.133L284.445 125.161L288.22 123.84ZM286.42 115.74L282.433 116.059L282.44 116.148L282.451 116.236L286.42 115.74ZM286.06 44.491L284.756 40.7095L282.06 41.6392V44.491H286.06ZM299.2 39.96L300.504 43.7415L303.2 42.8118V39.96H299.2ZM299.2 27H303.2V22.9304L299.131 23.0006L299.2 27ZM247 27.9L246.931 23.9006L243 23.9684V27.9H247ZM247 40.86H243V43.9331L245.969 44.7249L247 40.86ZM260.32 44.412H264.32V41.3389L261.351 40.5471L260.32 44.412ZM260.68 117.18L256.687 117.408L256.69 117.47L256.695 117.532L260.68 117.18ZM263.38 130.14L259.566 131.345L259.585 131.406L259.606 131.466L263.38 130.14ZM270.94 142.74L267.935 145.38L267.956 145.403L267.976 145.426L270.94 142.74ZM285.52 152.28L284.022 155.989L284.053 156.001L284.084 156.013L285.52 152.28ZM329.44 153.54L330.506 157.395L330.533 157.388L330.56 157.38L329.44 153.54ZM344.02 146.52L346.435 149.708L346.466 149.685L346.496 149.662L344.02 146.52ZM353.74 135.54L357.17 137.598L357.183 137.577L357.195 137.555L353.74 135.54ZM359.14 121.32L355.239 120.434L355.232 120.467L355.225 120.501L359.14 121.32ZM360.94 44.3892L359.662 40.5988L356.94 41.5164V44.3892H360.94ZM374.08 39.96L375.358 43.7505L378.08 42.8328V39.96H374.08ZM450.893 87.9282L447.678 85.5481L445.938 87.8987L447.65 90.2698L450.893 87.9282ZM486.748 137.585L483.505 139.927L484.279 140.999L485.539 141.398L486.748 137.585ZM483.094 44.4346L481.624 40.7144L480.56 41.1348L479.879 42.0545L483.094 44.4346ZM494.42 39.96L495.89 43.6802L498.42 42.6806V39.96H494.42ZM494.42 27H498.42V22.9195L494.34 23.0008L494.42 27ZM449.24 27.9L449.16 23.9008L445.24 23.9789V27.9H449.24ZM449.24 40.86H445.24V43.9185L448.192 44.7202L449.24 40.86ZM460.515 43.9224L463.778 46.2367L467.093 41.5639L461.564 40.0623L460.515 43.9224ZM439.107 74.1029L435.822 76.3862L439.074 81.0628L442.369 76.4172L439.107 74.1029ZM417.817 43.4809L416.641 39.6578L411.407 41.2682L414.533 45.7643L417.817 43.4809ZM429.26 39.96L430.436 43.7831L433.26 42.9143V39.96H429.26ZM429.26 27H433.26V22.9302L429.191 23.0006L429.26 27ZM377.24 27.9L377.171 23.9006L373.24 23.9686V27.9H377.24ZM377.24 40.86H373.24V43.993L376.282 44.7435L377.24 40.86ZM387.33 43.3497L390.582 41.0206L389.722 39.82L388.288 39.4662L387.33 43.3497ZM420.983 90.3369L424.197 92.7183L425.932 90.377L424.235 88.0078L420.983 90.3369ZM386.376 137.04L387.627 140.84L388.834 140.443L389.59 139.422L386.376 137.04ZM375.08 140.76L373.829 136.961L371.08 137.866V140.76H375.08ZM375.08 153.72H371.08V157.72H375.08V153.72ZM420.98 153.72V157.72H424.98V153.72H420.98ZM420.98 140.76H424.98V137.813L422.166 136.94L420.98 140.76ZM409.578 137.221L406.307 134.919L403.144 139.413L408.392 141.042L409.578 137.221ZM433.004 103.939L436.255 101.608L432.974 97.0314L429.733 101.636L433.004 103.939ZM456.696 136.991L457.807 140.833L463.245 139.261L459.947 134.66L456.696 136.991ZM443.66 140.76L442.549 136.917L439.66 137.753V140.76H443.66ZM443.66 153.72H439.66V157.72H443.66V153.72ZM496.76 153.72V157.72H500.76V153.72H496.76ZM496.76 140.76H500.76V137.832L497.969 136.947L496.76 140.76ZM321.949 31.8994L374.149 30.9994L374.011 23.0006L321.811 23.9006L321.949 31.8994ZM325.88 40.86V27.9H317.88V40.86H325.88ZM336.181 40.3503L322.861 36.9821L320.899 44.7379L334.219 48.1062L336.181 40.3503ZM339.2 104.22V44.2283H331.2V104.22H339.2ZM338.636 114.742C339.013 111.346 339.2 107.838 339.2 104.22H331.2C331.2 107.562 331.027 110.774 330.684 113.858L338.636 114.742ZM336.619 124.307C337.717 121.289 338.383 118.048 338.648 114.607L330.672 113.993C330.457 116.792 329.923 119.311 329.101 121.573L336.619 124.307ZM331.633 132.701C333.958 130.231 335.648 127.37 336.672 124.153L329.048 121.727C328.392 123.79 327.322 125.609 325.807 127.219L331.633 132.701ZM322.875 138.224C326.346 136.974 329.323 135.165 331.638 132.696L325.802 127.224C324.517 128.595 322.694 129.786 320.165 130.696L322.875 138.224ZM310.18 140.08C315.02 140.08 319.297 139.512 322.875 138.224L320.165 130.696C317.743 131.568 314.46 132.08 310.18 132.08V140.08ZM297.801 138.45C301.32 139.576 305.482 140.08 310.18 140.08V132.08C305.998 132.08 302.72 131.624 300.239 130.83L297.801 138.45ZM289.172 133.148C291.45 135.427 294.31 137.146 297.616 138.385L300.424 130.895C297.97 129.974 296.15 128.813 294.828 127.492L289.172 133.148ZM284.445 125.161C285.454 128.045 286.974 130.651 288.99 132.954L295.01 127.686C293.666 126.149 292.666 124.435 291.995 122.519L284.445 125.161ZM282.451 116.236C282.841 119.354 283.495 122.313 284.425 125.105L292.015 122.575C291.265 120.327 290.719 117.886 290.389 115.244L282.451 116.236ZM282.06 106.56C282.06 109.783 282.184 112.949 282.433 116.059L290.407 115.421C290.176 112.531 290.06 109.577 290.06 106.56H282.06ZM282.06 44.491V106.56H290.06V44.491H282.06ZM297.896 36.1785L284.756 40.7095L287.364 48.2725L300.504 43.7415L297.896 36.1785ZM295.2 27V39.96H303.2V27H295.2ZM247.069 31.8994L299.269 30.9994L299.131 23.0006L246.931 23.9006L247.069 31.8994ZM251 40.86V27.9H243V40.86H251ZM261.351 40.5471L248.031 36.9951L245.969 44.7249L259.289 48.2769L261.351 40.5471ZM264.32 106.56V44.412H256.32V106.56H264.32ZM264.673 116.952C264.436 112.797 264.32 109.338 264.32 106.56H256.32C256.32 109.542 256.444 113.163 256.687 117.408L264.673 116.952ZM267.194 128.935C265.828 124.608 264.995 120.575 264.665 116.828L256.695 117.532C257.085 121.945 258.052 126.552 259.566 131.345L267.194 128.935ZM273.945 140.1C270.762 136.478 268.525 132.716 267.154 128.814L259.606 131.466C261.355 136.444 264.158 141.082 267.935 145.38L273.945 140.1ZM287.018 148.571C281.177 146.212 276.876 143.334 273.904 140.054L267.976 145.426C271.964 149.826 277.383 153.308 284.022 155.989L287.018 148.571ZM309.82 151.88C300.133 151.88 292.571 150.706 286.956 148.547L284.084 156.013C290.949 158.654 299.587 159.88 309.82 159.88V151.88ZM328.374 149.685C323.16 151.127 316.992 151.88 309.82 151.88V159.88C317.528 159.88 324.44 159.073 330.506 157.395L328.374 149.685ZM341.605 143.332C338.105 145.983 333.707 148.129 328.32 149.7L330.56 157.38C336.693 155.591 342.016 153.057 346.435 149.708L341.605 143.332ZM350.31 133.482C348.047 137.254 345.135 140.55 341.545 143.378L346.496 149.662C350.825 146.251 354.393 142.226 357.17 137.598L350.31 133.482ZM355.225 120.501C354.228 125.263 352.577 129.596 350.285 133.525L357.195 137.555C359.943 132.844 361.892 127.697 363.055 122.139L355.225 120.501ZM356.94 104.22C356.94 110.08 356.365 115.479 355.239 120.434L363.041 122.206C364.315 116.601 364.94 110.6 364.94 104.22H356.94ZM356.94 44.3892V104.22H364.94V44.3892H356.94ZM372.802 36.1696L359.662 40.5988L362.218 48.1797L375.358 43.7505L372.802 36.1696ZM370.08 27V39.96H378.08V27H370.08ZM447.65 90.2698L483.505 139.927L489.991 135.244L454.136 85.5866L447.65 90.2698ZM479.879 42.0545L447.678 85.5481L454.108 90.3083L486.309 46.8147L479.879 42.0545ZM492.95 36.2398L481.624 40.7144L484.564 48.1548L495.89 43.6802L492.95 36.2398ZM490.42 27V39.96H498.42V27H490.42ZM449.32 31.8992L494.5 30.9992L494.34 23.0008L449.16 23.9008L449.32 31.8992ZM453.24 40.86V27.9H445.24V40.86H453.24ZM461.564 40.0623L450.289 36.9999L448.192 44.7202L459.467 47.7826L461.564 40.0623ZM442.369 76.4172L463.778 46.2367L457.253 41.6081L435.844 71.7886L442.369 76.4172ZM414.533 45.7643L435.822 76.3862L442.391 71.8195L421.101 41.1976L414.533 45.7643ZM428.084 36.1369L416.641 39.6578L418.993 47.304L430.436 43.7831L428.084 36.1369ZM425.26 27V39.96H433.26V27H425.26ZM377.309 31.8994L429.329 30.9994L429.191 23.0006L377.171 23.9006L377.309 31.8994ZM381.24 40.86V27.9H373.24V40.86H381.24ZM388.288 39.4662L378.198 36.9765L376.282 44.7435L386.372 47.2333L388.288 39.4662ZM424.235 88.0078L390.582 41.0206L384.078 45.6788L417.731 92.666L424.235 88.0078ZM389.59 139.422L424.197 92.7183L417.769 87.9555L383.163 134.659L389.59 139.422ZM376.331 144.559L387.627 140.84L385.125 133.241L373.829 136.961L376.331 144.559ZM379.08 153.72V140.76H371.08V153.72H379.08ZM420.98 149.72H375.08V157.72H420.98V149.72ZM416.98 140.76V153.72H424.98V140.76H416.98ZM408.392 141.042L419.794 144.58L422.166 136.94L410.763 133.401L408.392 141.042ZM429.733 101.636L406.307 134.919L412.849 139.524L436.275 106.241L429.733 101.636ZM459.947 134.66L436.255 101.608L429.753 106.269L453.445 139.321L459.947 134.66ZM444.771 144.603L457.807 140.833L455.585 133.148L442.549 136.917L444.771 144.603ZM447.66 153.72V140.76H439.66V153.72H447.66ZM496.76 149.72H443.66V157.72H496.76V149.72ZM492.76 140.76V153.72H500.76V140.76H492.76ZM485.539 141.398L495.551 144.573L497.969 136.947L487.957 133.773L485.539 141.398Z" fill="black" mask="url(#path-5-inside-1_197_2747)"/>
</svg>
