<svg width="308" height="75" viewBox="0 0 308 75" fill="none" xmlns="http://www.w3.org/2000/svg">
<path d="M306.464 62.8618L296.766 74.5H0.5V11.2342L12.1734 1.50639L296.584 11.4857L306.464 62.8618Z" fill="black" stroke="#E7F084"/>
<path d="M306.375 62.9686L296.766 74.5H1.20711L25.2314 50.4757L70.5518 44.9974L70.56 44.9964L281.75 26.5237L306.375 62.9686Z" fill="#E7F084" stroke="#E7F084"/>
<rect x="11.5" y="0.5" width="296" height="63" fill="#E7F084" stroke="black"/>
<path d="M75.672 23.152L71.28 40H66.312L63.624 28.912L60.84 40H55.872L51.6 23.152H55.992L58.416 35.416L61.416 23.152H65.928L68.808 35.416L71.256 23.152H75.672ZM86.3222 40L82.8182 33.64H81.8342V40H77.7302V23.152H84.6182C85.9462 23.152 87.0742 23.384 88.0022 23.848C88.9462 24.312 89.6502 24.952 90.1142 25.768C90.5782 26.568 90.8102 27.464 90.8102 28.456C90.8102 29.576 90.4902 30.576 89.8502 31.456C89.2262 32.336 88.2982 32.96 87.0662 33.328L90.9542 40H86.3222ZM81.8342 30.736H84.3782C85.1302 30.736 85.6902 30.552 86.0582 30.184C86.4422 29.816 86.6342 29.296 86.6342 28.624C86.6342 27.984 86.4422 27.48 86.0582 27.112C85.6902 26.744 85.1302 26.56 84.3782 26.56H81.8342V30.736ZM97.4904 23.152V40H93.3864V23.152H97.4904ZM112.585 23.152V26.44H108.121V40H104.017V26.44H99.5526V23.152H112.585ZM118.748 26.44V29.848H124.244V33.016H118.748V36.712H124.964V40H114.644V23.152H124.964V26.44H118.748ZM143.203 37.024H136.915L135.907 40H131.611L137.707 23.152H142.459L148.555 40H144.211L143.203 37.024ZM142.147 33.856L140.059 27.688L137.995 33.856H142.147ZM174.576 23.152V40H170.472V29.896L166.704 40H163.392L159.6 29.872V40H155.496V23.152H160.344L165.072 34.816L169.752 23.152H174.576ZM181.631 26.44V29.848H187.127V33.016H181.631V36.712H187.847V40H177.527V23.152H187.847V26.44H181.631ZM196.607 40.168C195.375 40.168 194.271 39.968 193.295 39.568C192.319 39.168 191.535 38.576 190.943 37.792C190.367 37.008 190.063 36.064 190.031 34.96H194.399C194.463 35.584 194.679 36.064 195.047 36.4C195.415 36.72 195.895 36.88 196.487 36.88C197.095 36.88 197.575 36.744 197.927 36.472C198.279 36.184 198.455 35.792 198.455 35.296C198.455 34.88 198.311 34.536 198.023 34.264C197.751 33.992 197.407 33.768 196.991 33.592C196.591 33.416 196.015 33.216 195.263 32.992C194.175 32.656 193.287 32.32 192.599 31.984C191.911 31.648 191.319 31.152 190.823 30.496C190.327 29.84 190.079 28.984 190.079 27.928C190.079 26.36 190.647 25.136 191.783 24.256C192.919 23.36 194.399 22.912 196.223 22.912C198.079 22.912 199.575 23.36 200.711 24.256C201.847 25.136 202.455 26.368 202.535 27.952H198.095C198.063 27.408 197.863 26.984 197.495 26.68C197.127 26.36 196.655 26.2 196.079 26.2C195.583 26.2 195.183 26.336 194.879 26.608C194.575 26.864 194.423 27.24 194.423 27.736C194.423 28.28 194.679 28.704 195.191 29.008C195.703 29.312 196.503 29.64 197.591 29.992C198.679 30.36 199.559 30.712 200.231 31.048C200.919 31.384 201.511 31.872 202.007 32.512C202.503 33.152 202.751 33.976 202.751 34.984C202.751 35.944 202.503 36.816 202.007 37.6C201.527 38.384 200.823 39.008 199.895 39.472C198.967 39.936 197.871 40.168 196.607 40.168ZM211.373 40.168C210.141 40.168 209.037 39.968 208.061 39.568C207.085 39.168 206.301 38.576 205.709 37.792C205.133 37.008 204.829 36.064 204.797 34.96H209.165C209.229 35.584 209.445 36.064 209.813 36.4C210.181 36.72 210.661 36.88 211.253 36.88C211.861 36.88 212.341 36.744 212.693 36.472C213.045 36.184 213.221 35.792 213.221 35.296C213.221 34.88 213.077 34.536 212.789 34.264C212.517 33.992 212.173 33.768 211.757 33.592C211.357 33.416 210.781 33.216 210.029 32.992C208.941 32.656 208.053 32.32 207.365 31.984C206.677 31.648 206.085 31.152 205.589 30.496C205.093 29.84 204.845 28.984 204.845 27.928C204.845 26.36 205.413 25.136 206.549 24.256C207.685 23.36 209.165 22.912 210.989 22.912C212.845 22.912 214.341 23.36 215.477 24.256C216.613 25.136 217.221 26.368 217.301 27.952H212.861C212.829 27.408 212.629 26.984 212.261 26.68C211.893 26.36 211.421 26.2 210.845 26.2C210.349 26.2 209.949 26.336 209.645 26.608C209.341 26.864 209.189 27.24 209.189 27.736C209.189 28.28 209.445 28.704 209.957 29.008C210.469 29.312 211.269 29.64 212.357 29.992C213.445 30.36 214.325 30.712 214.997 31.048C215.685 31.384 216.277 31.872 216.773 32.512C217.269 33.152 217.517 33.976 217.517 34.984C217.517 35.944 217.269 36.816 216.773 37.6C216.293 38.384 215.589 39.008 214.661 39.472C213.733 39.936 212.637 40.168 211.373 40.168ZM230.531 37.024H224.243L223.235 40H218.939L225.035 23.152H229.787L235.883 40H231.539L230.531 37.024ZM229.475 33.856L227.387 27.688L225.323 33.856H229.475ZM248.922 28.48C248.618 27.92 248.178 27.496 247.602 27.208C247.042 26.904 246.378 26.752 245.61 26.752C244.282 26.752 243.218 27.192 242.418 28.072C241.618 28.936 241.218 30.096 241.218 31.552C241.218 33.104 241.634 34.32 242.466 35.2C243.314 36.064 244.474 36.496 245.946 36.496C246.954 36.496 247.802 36.24 248.49 35.728C249.194 35.216 249.706 34.48 250.026 33.52H244.818V30.496H253.746V34.312C253.442 35.336 252.922 36.288 252.186 37.168C251.466 38.048 250.546 38.76 249.426 39.304C248.306 39.848 247.042 40.12 245.634 40.12C243.97 40.12 242.482 39.76 241.17 39.04C239.874 38.304 238.858 37.288 238.122 35.992C237.402 34.696 237.042 33.216 237.042 31.552C237.042 29.888 237.402 28.408 238.122 27.112C238.858 25.8 239.874 24.784 241.17 24.064C242.466 23.328 243.946 22.96 245.61 22.96C247.626 22.96 249.322 23.448 250.698 24.424C252.09 25.4 253.01 26.752 253.458 28.48H248.922ZM260.123 26.44V29.848H265.619V33.016H260.123V36.712H266.339V40H256.019V23.152H266.339V26.44H260.123Z" fill="black"/>
</svg>
