<svg width="308" height="75" viewBox="0 0 308 75" fill="none" xmlns="http://www.w3.org/2000/svg">
<path d="M298.993 71.3491L296.743 74.5H0.5V11.23L3.68275 8.50189L296.52 11.4951L298.993 71.3491Z" fill="black" stroke="#F3FF63"/>
<path d="M298.455 70.9721L296.691 74.5H1.20711L25.2314 50.4757L70.5518 44.9974L70.56 44.9964L281.666 26.5311L298.455 70.9721Z" fill="#F3FF63" stroke="#F3FF63"/>
<rect x="3.5" y="8.5" width="296" height="63" fill="#F3FF63" stroke="black"/>
<path d="M67.672 31.152L63.28 48H58.312L55.624 36.912L52.84 48H47.872L43.6 31.152H47.992L50.416 43.416L53.416 31.152H57.928L60.808 43.416L63.256 31.152H67.672ZM78.3222 48L74.8182 41.64H73.8342V48H69.7302V31.152H76.6182C77.9462 31.152 79.0742 31.384 80.0022 31.848C80.9462 32.312 81.6502 32.952 82.1142 33.768C82.5782 34.568 82.8102 35.464 82.8102 36.456C82.8102 37.576 82.4902 38.576 81.8502 39.456C81.2262 40.336 80.2982 40.96 79.0662 41.328L82.9542 48H78.3222ZM73.8342 38.736H76.3782C77.1302 38.736 77.6902 38.552 78.0582 38.184C78.4422 37.816 78.6342 37.296 78.6342 36.624C78.6342 35.984 78.4422 35.48 78.0582 35.112C77.6902 34.744 77.1302 34.56 76.3782 34.56H73.8342V38.736ZM89.4904 31.152V48H85.3864V31.152H89.4904ZM104.585 31.152V34.44H100.121V48H96.0166V34.44H91.5526V31.152H104.585ZM110.748 34.44V37.848H116.244V41.016H110.748V44.712H116.964V48H106.644V31.152H116.964V34.44H110.748ZM135.203 45.024H128.915L127.907 48H123.611L129.707 31.152H134.459L140.555 48H136.211L135.203 45.024ZM134.147 41.856L132.059 35.688L129.995 41.856H134.147ZM166.576 31.152V48H162.472V37.896L158.704 48H155.392L151.6 37.872V48H147.496V31.152H152.344L157.072 42.816L161.752 31.152H166.576ZM173.631 34.44V37.848H179.127V41.016H173.631V44.712H179.847V48H169.527V31.152H179.847V34.44H173.631ZM188.607 48.168C187.375 48.168 186.271 47.968 185.295 47.568C184.319 47.168 183.535 46.576 182.943 45.792C182.367 45.008 182.063 44.064 182.031 42.96H186.399C186.463 43.584 186.679 44.064 187.047 44.4C187.415 44.72 187.895 44.88 188.487 44.88C189.095 44.88 189.575 44.744 189.927 44.472C190.279 44.184 190.455 43.792 190.455 43.296C190.455 42.88 190.311 42.536 190.023 42.264C189.751 41.992 189.407 41.768 188.991 41.592C188.591 41.416 188.015 41.216 187.263 40.992C186.175 40.656 185.287 40.32 184.599 39.984C183.911 39.648 183.319 39.152 182.823 38.496C182.327 37.84 182.079 36.984 182.079 35.928C182.079 34.36 182.647 33.136 183.783 32.256C184.919 31.36 186.399 30.912 188.223 30.912C190.079 30.912 191.575 31.36 192.711 32.256C193.847 33.136 194.455 34.368 194.535 35.952H190.095C190.063 35.408 189.863 34.984 189.495 34.68C189.127 34.36 188.655 34.2 188.079 34.2C187.583 34.2 187.183 34.336 186.879 34.608C186.575 34.864 186.423 35.24 186.423 35.736C186.423 36.28 186.679 36.704 187.191 37.008C187.703 37.312 188.503 37.64 189.591 37.992C190.679 38.36 191.559 38.712 192.231 39.048C192.919 39.384 193.511 39.872 194.007 40.512C194.503 41.152 194.751 41.976 194.751 42.984C194.751 43.944 194.503 44.816 194.007 45.6C193.527 46.384 192.823 47.008 191.895 47.472C190.967 47.936 189.871 48.168 188.607 48.168ZM203.373 48.168C202.141 48.168 201.037 47.968 200.061 47.568C199.085 47.168 198.301 46.576 197.709 45.792C197.133 45.008 196.829 44.064 196.797 42.96H201.165C201.229 43.584 201.445 44.064 201.813 44.4C202.181 44.72 202.661 44.88 203.253 44.88C203.861 44.88 204.341 44.744 204.693 44.472C205.045 44.184 205.221 43.792 205.221 43.296C205.221 42.88 205.077 42.536 204.789 42.264C204.517 41.992 204.173 41.768 203.757 41.592C203.357 41.416 202.781 41.216 202.029 40.992C200.941 40.656 200.053 40.32 199.365 39.984C198.677 39.648 198.085 39.152 197.589 38.496C197.093 37.84 196.845 36.984 196.845 35.928C196.845 34.36 197.413 33.136 198.549 32.256C199.685 31.36 201.165 30.912 202.989 30.912C204.845 30.912 206.341 31.36 207.477 32.256C208.613 33.136 209.221 34.368 209.301 35.952H204.861C204.829 35.408 204.629 34.984 204.261 34.68C203.893 34.36 203.421 34.2 202.845 34.2C202.349 34.2 201.949 34.336 201.645 34.608C201.341 34.864 201.189 35.24 201.189 35.736C201.189 36.28 201.445 36.704 201.957 37.008C202.469 37.312 203.269 37.64 204.357 37.992C205.445 38.36 206.325 38.712 206.997 39.048C207.685 39.384 208.277 39.872 208.773 40.512C209.269 41.152 209.517 41.976 209.517 42.984C209.517 43.944 209.269 44.816 208.773 45.6C208.293 46.384 207.589 47.008 206.661 47.472C205.733 47.936 204.637 48.168 203.373 48.168ZM222.531 45.024H216.243L215.235 48H210.939L217.035 31.152H221.787L227.883 48H223.539L222.531 45.024ZM221.475 41.856L219.387 35.688L217.323 41.856H221.475ZM240.922 36.48C240.618 35.92 240.178 35.496 239.602 35.208C239.042 34.904 238.378 34.752 237.61 34.752C236.282 34.752 235.218 35.192 234.418 36.072C233.618 36.936 233.218 38.096 233.218 39.552C233.218 41.104 233.634 42.32 234.466 43.2C235.314 44.064 236.474 44.496 237.946 44.496C238.954 44.496 239.802 44.24 240.49 43.728C241.194 43.216 241.706 42.48 242.026 41.52H236.818V38.496H245.746V42.312C245.442 43.336 244.922 44.288 244.186 45.168C243.466 46.048 242.546 46.76 241.426 47.304C240.306 47.848 239.042 48.12 237.634 48.12C235.97 48.12 234.482 47.76 233.17 47.04C231.874 46.304 230.858 45.288 230.122 43.992C229.402 42.696 229.042 41.216 229.042 39.552C229.042 37.888 229.402 36.408 230.122 35.112C230.858 33.8 231.874 32.784 233.17 32.064C234.466 31.328 235.946 30.96 237.61 30.96C239.626 30.96 241.322 31.448 242.698 32.424C244.09 33.4 245.01 34.752 245.458 36.48H240.922ZM252.123 34.44V37.848H257.619V41.016H252.123V44.712H258.339V48H248.019V31.152H258.339V34.44H252.123Z" fill="black"/>
</svg>
