<svg width="148" height="126" viewBox="0 0 148 126" fill="none" xmlns="http://www.w3.org/2000/svg">
<path d="M29 7H124C136.703 7 147 17.2975 147 30V122C147 123.657 145.657 125 144 125H29C16.2975 125 6 114.703 6 102V30C6 17.2974 16.2975 7 29 7Z" fill="black" stroke="black" stroke-width="2"/>
<path d="M24 1H119C131.703 1 142 11.2975 142 24V116C142 117.657 140.657 119 139 119H24C11.2975 119 1 108.703 1 96V24C1 11.2975 11.2975 1 24 1Z" fill="#28B4A6" stroke="black" stroke-width="2"/>
<path d="M28.744 96.12H29.912L29.896 99H21.64V98.008L23.16 97.608L22.888 98.008V88.808L23.16 89.208L21.64 88.84V87.848L24.824 87.768H29.72V90.536H28.536L28.232 88.904L28.616 89.192H24.536L24.856 88.872V92.904L24.536 92.584H28.488V93.96H24.536L24.856 93.608V97.896L24.536 97.576H28.808L28.424 97.896L28.744 96.12ZM30.5819 99V98.008L31.9259 97.72L31.4459 97.992L33.9899 94.44L34.4219 94.376L36.9979 90.552L39.0619 90.424V91.416L37.7019 91.752L38.2619 91.432L35.7979 94.808L35.3819 94.856L32.6459 99H30.5819ZM35.2219 99V98.008L36.3099 97.816L36.1979 98.072L34.1019 95.08L31.5099 91.448L31.9099 91.784L30.7739 91.544V90.552L34.5499 90.424V91.416L33.4299 91.656L33.5739 91.352L35.4459 94.072L38.2779 97.992L37.9259 97.72L39.2379 98.008V99H35.2219ZM39.5864 102.68V101.688L40.9784 101.272L40.7224 101.608V91.624L40.9624 91.896L39.5864 91.528V90.536L42.2104 90.408L42.4344 91.8L42.2264 91.688C42.717 91.24 43.2024 90.8987 43.6824 90.664C44.1624 90.4293 44.653 90.312 45.1544 90.312C45.773 90.312 46.317 90.4773 46.7864 90.808C47.2557 91.128 47.6237 91.608 47.8904 92.248C48.1677 92.8773 48.3064 93.6453 48.3064 94.552C48.3064 95.576 48.1304 96.4293 47.7784 97.112C47.437 97.7947 46.9517 98.312 46.3224 98.664C45.7037 99.0053 44.9784 99.176 44.1464 99.176C43.869 99.176 43.5864 99.1547 43.2984 99.112C43.0104 99.0693 42.7064 99.016 42.3864 98.952L42.6424 98.712V101.608L42.4184 101.304L43.9704 101.688V102.68H39.5864ZM43.9064 97.8C44.717 97.8 45.3197 97.528 45.7144 96.984C46.109 96.44 46.3064 95.6933 46.3064 94.744C46.3064 94.1253 46.2264 93.592 46.0664 93.144C45.917 92.696 45.7037 92.3493 45.4264 92.104C45.149 91.8587 44.813 91.736 44.4184 91.736C44.109 91.736 43.7837 91.8213 43.4424 91.992C43.1117 92.152 42.765 92.4027 42.4024 92.744L42.6424 92.216V97.944L42.4024 97.56C42.957 97.72 43.4584 97.8 43.9064 97.8ZM53.2906 99.176C52.544 99.176 51.8826 99.016 51.3066 98.696C50.7306 98.3653 50.2826 97.88 49.9626 97.24C49.6426 96.6 49.4826 95.816 49.4826 94.888C49.4826 93.9387 49.648 93.1227 49.9786 92.44C50.32 91.7573 50.7946 91.2347 51.4026 90.872C52.0213 90.4987 52.752 90.312 53.5946 90.312C54.3946 90.312 55.0453 90.4773 55.5466 90.808C56.0586 91.128 56.4373 91.5707 56.6826 92.136C56.928 92.7013 57.0506 93.3413 57.0506 94.056C57.0506 94.216 57.0453 94.376 57.0346 94.536C57.024 94.696 57.0026 94.872 56.9706 95.064H51.0186V93.848H55.2906L55.0666 93.992C55.0773 93.5653 55.0293 93.1813 54.9226 92.84C54.8266 92.4987 54.656 92.2267 54.4106 92.024C54.1653 91.8213 53.84 91.72 53.4346 91.72C52.976 91.72 52.5973 91.848 52.2986 92.104C52.0106 92.36 51.7973 92.7067 51.6586 93.144C51.5306 93.5813 51.4666 94.0773 51.4666 94.632C51.4666 95.24 51.5466 95.7787 51.7066 96.248C51.8666 96.7067 52.1173 97.0693 52.4586 97.336C52.8 97.6027 53.232 97.736 53.7546 97.736C54.128 97.736 54.5333 97.6667 54.9706 97.528C55.408 97.3893 55.8613 97.176 56.3306 96.888L56.9866 97.928C56.3786 98.344 55.76 98.6587 55.1306 98.872C54.5013 99.0747 53.888 99.176 53.2906 99.176ZM58.1683 99V98.008L59.4963 97.656L59.3043 97.96V91.56L59.5283 91.896L58.1683 91.528V90.536L60.7923 90.408L61.0483 91.944L60.7923 91.88C61.2723 91.3787 61.7416 90.9947 62.2003 90.728C62.6696 90.4507 63.1763 90.312 63.7203 90.312C64.0616 90.312 64.4189 90.3653 64.7923 90.472L64.6643 93.224H63.5443L63.3203 91.512L63.4963 91.896C63.4323 91.8747 63.3629 91.8587 63.2883 91.848C63.2136 91.8373 63.1389 91.832 63.0643 91.832C62.7016 91.832 62.3443 91.944 61.9923 92.168C61.6509 92.3813 61.3416 92.664 61.0643 93.016L61.2243 92.488V97.96L60.9843 97.656L62.6163 98.008V99H58.1683ZM68.4586 97.848L68.2986 97.672L69.5786 98.008V99H65.4026V98.008L66.6826 97.672L66.5386 97.848V91.704L66.6666 91.848L65.4026 91.528V90.536L68.4586 90.424V97.848ZM67.4186 89.016C67.0666 89.016 66.784 88.9147 66.5706 88.712C66.3573 88.5093 66.2506 88.2267 66.2506 87.864C66.2506 87.4693 66.3626 87.176 66.5866 86.984C66.8106 86.7813 67.0933 86.68 67.4346 86.68C67.7653 86.68 68.0373 86.776 68.2506 86.968C68.4746 87.16 68.5866 87.4533 68.5866 87.848C68.5866 88.232 68.4746 88.5253 68.2506 88.728C68.0266 88.92 67.7493 89.016 67.4186 89.016ZM74.2594 99.176C73.5127 99.176 72.8514 99.016 72.2754 98.696C71.6994 98.3653 71.2514 97.88 70.9314 97.24C70.6114 96.6 70.4514 95.816 70.4514 94.888C70.4514 93.9387 70.6167 93.1227 70.9474 92.44C71.2887 91.7573 71.7634 91.2347 72.3714 90.872C72.99 90.4987 73.7207 90.312 74.5634 90.312C75.3634 90.312 76.014 90.4773 76.5154 90.808C77.0274 91.128 77.406 91.5707 77.6514 92.136C77.8967 92.7013 78.0194 93.3413 78.0194 94.056C78.0194 94.216 78.014 94.376 78.0034 94.536C77.9927 94.696 77.9714 94.872 77.9394 95.064H71.9874V93.848H76.2594L76.0354 93.992C76.046 93.5653 75.998 93.1813 75.8914 92.84C75.7954 92.4987 75.6247 92.2267 75.3794 92.024C75.134 91.8213 74.8087 91.72 74.4034 91.72C73.9447 91.72 73.566 91.848 73.2674 92.104C72.9794 92.36 72.766 92.7067 72.6274 93.144C72.4994 93.5813 72.4354 94.0773 72.4354 94.632C72.4354 95.24 72.5154 95.7787 72.6754 96.248C72.8354 96.7067 73.086 97.0693 73.4274 97.336C73.7687 97.6027 74.2007 97.736 74.7234 97.736C75.0967 97.736 75.502 97.6667 75.9394 97.528C76.3767 97.3893 76.83 97.176 77.2994 96.888L77.9554 97.928C77.3474 98.344 76.7287 98.6587 76.0994 98.872C75.47 99.0747 74.8567 99.176 74.2594 99.176ZM79.137 99V98.008L80.513 97.64L80.273 97.928V91.576L80.513 91.896L79.137 91.528V90.536L81.761 90.408L82.017 91.96L81.761 91.864C82.2837 91.3307 82.833 90.9413 83.409 90.696C83.985 90.44 84.5343 90.312 85.057 90.312C85.7717 90.312 86.3637 90.536 86.833 90.984C87.313 91.432 87.5477 92.1093 87.537 93.016V97.928L87.345 97.64L88.673 98.008V99H84.577V98.008L85.857 97.672L85.617 97.976V93.432C85.617 92.8667 85.489 92.4507 85.233 92.184C84.9877 91.9173 84.657 91.784 84.241 91.784C83.921 91.784 83.569 91.8747 83.185 92.056C82.801 92.2267 82.4223 92.4933 82.049 92.856L82.193 92.552V97.976L82.001 97.672L83.233 98.008V99H79.137ZM93.2274 99.176C92.502 99.176 91.8514 99.0053 91.2754 98.664C90.6994 98.3227 90.246 97.8267 89.9154 97.176C89.5847 96.5253 89.4194 95.7413 89.4194 94.824C89.4194 94.0027 89.5367 93.3093 89.7714 92.744C90.006 92.168 90.3207 91.704 90.7154 91.352C91.1207 90.9893 91.574 90.728 92.0754 90.568C92.5874 90.3973 93.11 90.312 93.6434 90.312C94.1234 90.312 94.6194 90.376 95.1314 90.504C95.6434 90.6213 96.07 90.7707 96.4114 90.952L96.3474 93.176H95.0994L94.8754 91.8L95.0354 91.944C94.8327 91.8587 94.6034 91.7947 94.3474 91.752C94.102 91.7093 93.878 91.688 93.6754 91.688C93.1847 91.688 92.7687 91.816 92.4274 92.072C92.0967 92.3173 91.846 92.664 91.6754 93.112C91.5047 93.56 91.4194 94.0933 91.4194 94.712C91.4194 95.3733 91.51 95.928 91.6914 96.376C91.8834 96.824 92.15 97.1653 92.4914 97.4C92.8327 97.6347 93.222 97.752 93.6594 97.752C94.0114 97.752 94.39 97.6773 94.7954 97.528C95.2007 97.3787 95.622 97.16 96.0594 96.872L96.6994 97.864C96.1234 98.312 95.542 98.6427 94.9554 98.856C94.3687 99.0693 93.7927 99.176 93.2274 99.176ZM101.228 99.176C100.481 99.176 99.8201 99.016 99.2441 98.696C98.6681 98.3653 98.2201 97.88 97.9001 97.24C97.5801 96.6 97.4201 95.816 97.4201 94.888C97.4201 93.9387 97.5855 93.1227 97.9161 92.44C98.2575 91.7573 98.7321 91.2347 99.3401 90.872C99.9588 90.4987 100.689 90.312 101.532 90.312C102.332 90.312 102.983 90.4773 103.484 90.808C103.996 91.128 104.375 91.5707 104.62 92.136C104.865 92.7013 104.988 93.3413 104.988 94.056C104.988 94.216 104.983 94.376 104.972 94.536C104.961 94.696 104.94 94.872 104.908 95.064H98.9561V93.848H103.228L103.004 93.992C103.015 93.5653 102.967 93.1813 102.86 92.84C102.764 92.4987 102.593 92.2267 102.348 92.024C102.103 91.8213 101.777 91.72 101.372 91.72C100.913 91.72 100.535 91.848 100.236 92.104C99.9481 92.36 99.7348 92.7067 99.5961 93.144C99.4681 93.5813 99.4041 94.0773 99.4041 94.632C99.4041 95.24 99.4841 95.7787 99.6441 96.248C99.8041 96.7067 100.055 97.0693 100.396 97.336C100.737 97.6027 101.169 97.736 101.692 97.736C102.065 97.736 102.471 97.6667 102.908 97.528C103.345 97.3893 103.799 97.176 104.268 96.888L104.924 97.928C104.316 98.344 103.697 98.6587 103.068 98.872C102.439 99.0747 101.825 99.176 101.228 99.176Z" fill="black"/>
<path d="M89.864 72V71.008L91.432 70.592L91.144 71.008V67.6L91.32 68.288L87.992 61.872L88.376 62.192L87.048 61.84V60.848L91.384 60.768V61.76L89.864 62.128L90.024 61.776L92.488 66.896H92.104L94.6 61.856L94.744 62.208L93.192 61.84V60.848L97.288 60.768V61.76L95.944 62.128L96.344 61.824L92.952 68.288L93.112 67.6V71.008L92.824 70.592L94.392 71.008V72H89.864Z" fill="black"/>
<mask id="path-5-outside-1_196_2681" maskUnits="userSpaceOnUse" x="91" y="22" width="29" height="29" fill="black">
<rect fill="white" x="91" y="22" width="29" height="29"/>
<path fill-rule="evenodd" clip-rule="evenodd" d="M104 24C102.343 24 101 25.3431 101 27V32L96 32C94.3431 32 93 33.3431 93 35V38C93 39.6569 94.3431 41 96 41H101V46C101 47.6569 102.343 49 104 49H107C108.657 49 110 47.6569 110 46V41H115C116.657 41 118 39.6569 118 38V35C118 33.3431 116.657 32 115 32L110 32V27C110 25.3431 108.657 24 107 24H104Z"/>
</mask>
<path fill-rule="evenodd" clip-rule="evenodd" d="M104 24C102.343 24 101 25.3431 101 27V32L96 32C94.3431 32 93 33.3431 93 35V38C93 39.6569 94.3431 41 96 41H101V46C101 47.6569 102.343 49 104 49H107C108.657 49 110 47.6569 110 46V41H115C116.657 41 118 39.6569 118 38V35C118 33.3431 116.657 32 115 32L110 32V27C110 25.3431 108.657 24 107 24H104Z" fill="black"/>
<path d="M101 32L101 34L103 34V32H101ZM96 32L96 30H96V32ZM101 41H103V39H101V41ZM110 41V39H108V41H110ZM115 32L115 34H115V32ZM110 32H108V34L110 34L110 32ZM103 27C103 26.4477 103.448 26 104 26V22C101.239 22 99 24.2386 99 27H103ZM103 32V27H99V32H103ZM96 34L101 34L101 30L96 30L96 34ZM95 35C95 34.4477 95.4477 34 96 34V30C93.2386 30 91 32.2386 91 35H95ZM95 38V35H91V38H95ZM96 39C95.4477 39 95 38.5523 95 38H91C91 40.7614 93.2386 43 96 43V39ZM101 39H96V43H101V39ZM103 46V41H99V46H103ZM104 47C103.448 47 103 46.5523 103 46H99C99 48.7614 101.239 51 104 51V47ZM107 47H104V51H107V47ZM108 46C108 46.5523 107.552 47 107 47V51C109.761 51 112 48.7614 112 46H108ZM108 41V46H112V41H108ZM115 39H110V43H115V39ZM116 38C116 38.5523 115.552 39 115 39V43C117.761 43 120 40.7614 120 38H116ZM116 35V38H120V35H116ZM115 34C115.552 34 116 34.4477 116 35H120C120 32.2386 117.761 30 115 30V34ZM110 34L115 34L115 30L110 30L110 34ZM108 27V32H112V27H108ZM107 26C107.552 26 108 26.4477 108 27H112C112 24.2386 109.761 22 107 22V26ZM104 26H107V22H104V26Z" fill="black" mask="url(#path-5-outside-1_196_2681)"/>
<mask id="path-7-outside-2_196_2681" maskUnits="userSpaceOnUse" x="90" y="21" width="29" height="29" fill="black">
<rect fill="white" x="90" y="21" width="29" height="29"/>
<path fill-rule="evenodd" clip-rule="evenodd" d="M103 23C101.343 23 100 24.3431 100 26V31L95 31C93.3431 31 92 32.3431 92 34V37C92 38.6569 93.3431 40 95 40H100V45C100 46.6569 101.343 48 103 48H106C107.657 48 109 46.6569 109 45V40H114C115.657 40 117 38.6569 117 37V34C117 32.3431 115.657 31 114 31L109 31V26C109 24.3431 107.657 23 106 23H103Z"/>
</mask>
<path fill-rule="evenodd" clip-rule="evenodd" d="M103 23C101.343 23 100 24.3431 100 26V31L95 31C93.3431 31 92 32.3431 92 34V37C92 38.6569 93.3431 40 95 40H100V45C100 46.6569 101.343 48 103 48H106C107.657 48 109 46.6569 109 45V40H114C115.657 40 117 38.6569 117 37V34C117 32.3431 115.657 31 114 31L109 31V26C109 24.3431 107.657 23 106 23H103Z" fill="#FFDD76"/>
<path d="M100 31L100 33L102 33V31H100ZM95 31L95 29H95V31ZM100 40H102V38H100V40ZM109 40V38H107V40H109ZM114 31L114 33H114V31ZM109 31H107V33L109 33L109 31ZM102 26C102 25.4477 102.448 25 103 25V21C100.239 21 98 23.2386 98 26H102ZM102 31V26H98V31H102ZM95 33L100 33L100 29L95 29L95 33ZM94 34C94 33.4477 94.4477 33 95 33V29C92.2386 29 90 31.2386 90 34H94ZM94 37V34H90V37H94ZM95 38C94.4477 38 94 37.5523 94 37H90C90 39.7614 92.2386 42 95 42V38ZM100 38H95V42H100V38ZM102 45V40H98V45H102ZM103 46C102.448 46 102 45.5523 102 45H98C98 47.7614 100.239 50 103 50V46ZM106 46H103V50H106V46ZM107 45C107 45.5523 106.552 46 106 46V50C108.761 50 111 47.7614 111 45H107ZM107 40V45H111V40H107ZM114 38H109V42H114V38ZM115 37C115 37.5523 114.552 38 114 38V42C116.761 42 119 39.7614 119 37H115ZM115 34V37H119V34H115ZM114 33C114.552 33 115 33.4477 115 34H119C119 31.2386 116.761 29 114 29V33ZM109 33L114 33L114 29L109 29L109 33ZM107 26V31H111V26H107ZM106 25C106.552 25 107 25.4477 107 26H111C111 23.2386 108.761 21 106 21V25ZM103 25H106V21H103V25Z" fill="black" mask="url(#path-7-outside-2_196_2681)"/>
</svg>
