<svg width="106" height="106" viewBox="0 0 106 106" fill="none" xmlns="http://www.w3.org/2000/svg">
<path d="M12.6951 0.5H105.448L95.0251 105.5H0.5V14.2195L12.6951 0.5Z" fill="black" stroke="black"/>
<path d="M105.499 93.3646L96.3971 105.5H1.20084L104.731 1.20335L105.499 93.3646Z" fill="#E7F084" stroke="black"/>
<rect x="12.9688" y="0.5" width="92.5294" height="92.5294" fill="#E7F084" stroke="black"/>
<path d="M85.1817 25.1517V29.8001H92.6781V34.1212H85.1817V39.1624H93.6602V43.6472H79.584V20.667H93.6602V25.1517H85.1817Z" fill="black"/>
<path d="M69.9478 43.6472L65.1684 34.9723H63.8263V43.6472H58.2285V20.667H67.6235C69.4349 20.667 70.9735 20.9834 72.2392 21.6163C73.5268 22.2492 74.487 23.1221 75.1199 24.2351C75.7528 25.3263 76.0693 26.5484 76.0693 27.9015C76.0693 29.4291 75.6328 30.7931 74.7598 31.9934C73.9087 33.1937 72.643 34.0448 70.9625 34.5468L76.2657 43.6472H69.9478ZM63.8263 31.0113H67.2962C68.3219 31.0113 69.0857 30.7604 69.5877 30.2584C70.1114 29.7565 70.3733 29.0472 70.3733 28.1306C70.3733 27.2577 70.1114 26.5703 69.5877 26.0683C69.0857 25.5664 68.3219 25.3154 67.2962 25.3154H63.8263V31.0113Z" fill="black"/>
<path d="M54.172 20.667V43.6472H48.5742V20.667H54.172Z" fill="black"/>
<path d="M44.5339 20.667V43.6472H38.9362V34.1867H30.2286V43.6472H24.6309V20.667H30.2286V29.6692H38.9362V20.667H44.5339Z" fill="black"/>
<path d="M60.2774 53.9901V58.6385H91.1562V62.9596H60.2774V68.0008H93.697V72.4855H54.6797V49.5054H93.697V53.9901H60.2774Z" fill="black"/>
<path d="M50.6554 49.5054V72.4855H45.0577V58.704L39.9182 72.4855H35.4008L30.2286 58.6713V72.4855H24.6309V49.5054H31.2434L37.6922 65.4147L44.0756 49.5054H50.6554Z" fill="black"/>
</svg>
