<svg width="148" height="126" viewBox="0 0 148 126" fill="none" xmlns="http://www.w3.org/2000/svg">
<path d="M142.549 1.02056L147 6.36205V125H5.46837L1.016 119.657L5.95889 6.95925L142.549 1.02056Z" fill="black" stroke="black" stroke-width="2"/>
<path d="M1 1H142V119H1V1Z" fill="#90A7EB" stroke="black" stroke-width="2"/>
<path d="M25.784 94.92H24.456L24.856 94.6V98.008L24.568 97.624L26.456 98.008V99H21.64V98.008L23.208 97.592L22.888 98.008V88.792L23.256 89.224L21.64 88.84V87.848L24.904 87.768H26.472C27.336 87.768 28.0453 87.9173 28.6 88.216C29.1547 88.504 29.5653 88.904 29.832 89.416C30.1093 89.928 30.248 90.5147 30.248 91.176C30.248 91.8907 30.0827 92.536 29.752 93.112C29.432 93.6773 28.9413 94.12 28.28 94.44C27.6293 94.76 26.7973 94.92 25.784 94.92ZM26.168 89.176H24.536L24.856 88.872V93.816L24.456 93.496H25.8C26.5893 93.496 27.192 93.2933 27.608 92.888C28.024 92.472 28.232 91.9173 28.232 91.224C28.232 90.584 28.056 90.0827 27.704 89.72C27.3627 89.3573 26.8507 89.176 26.168 89.176ZM31.1058 99V98.008L32.4338 97.656L32.2418 97.96V91.56L32.4658 91.896L31.1058 91.528V90.536L33.7298 90.408L33.9858 91.944L33.7298 91.88C34.2098 91.3787 34.6791 90.9947 35.1378 90.728C35.6071 90.4507 36.1138 90.312 36.6578 90.312C36.9991 90.312 37.3564 90.3653 37.7298 90.472L37.6018 93.224H36.4818L36.2578 91.512L36.4338 91.896C36.3698 91.8747 36.3004 91.8587 36.2258 91.848C36.1511 91.8373 36.0764 91.832 36.0018 91.832C35.6391 91.832 35.2818 91.944 34.9298 92.168C34.5884 92.3813 34.2791 92.664 34.0018 93.016L34.1618 92.488V97.96L33.9218 97.656L35.5538 98.008V99H31.1058ZM42.3763 90.312C43.6136 90.312 44.5736 90.6853 45.2563 91.432C45.9496 92.168 46.2963 93.2187 46.2963 94.584C46.2963 95.5333 46.1256 96.3493 45.7843 97.032C45.4536 97.7147 44.9736 98.2427 44.3443 98.616C43.7256 98.9893 42.9789 99.176 42.1043 99.176C40.8776 99.176 39.9229 98.808 39.2403 98.072C38.5683 97.336 38.2323 96.28 38.2323 94.904C38.2323 93.9547 38.3976 93.1387 38.7283 92.456C39.0589 91.7733 39.5336 91.2453 40.1523 90.872C40.7709 90.4987 41.5123 90.312 42.3763 90.312ZM42.2803 91.688C41.6083 91.688 41.0963 91.9493 40.7443 92.472C40.4029 92.9947 40.2323 93.7733 40.2323 94.808C40.2323 95.8427 40.3976 96.6 40.7283 97.08C41.0589 97.56 41.5496 97.8 42.2003 97.8C42.6696 97.8 43.0589 97.6827 43.3683 97.448C43.6776 97.2027 43.9123 96.8507 44.0723 96.392C44.2323 95.9227 44.3123 95.352 44.3123 94.68C44.3123 93.6773 44.1363 92.9307 43.7843 92.44C43.4429 91.9387 42.9416 91.688 42.2803 91.688ZM46.9718 102.856C46.8117 102.856 46.6571 102.845 46.5077 102.824C46.3477 102.813 46.1771 102.792 45.9957 102.76L46.1397 101.384C46.2571 101.395 46.3691 101.405 46.4757 101.416C46.5717 101.427 46.6624 101.432 46.7477 101.432C47.2918 101.432 47.6811 101.304 47.9158 101.048C48.1504 100.803 48.2678 100.371 48.2678 99.752V91.64L48.4758 91.88L47.1478 91.528V90.536L50.1878 90.424V99.16C50.1878 99.8107 50.1131 100.365 49.9638 100.824C49.8251 101.293 49.6171 101.677 49.3398 101.976C49.0731 102.275 48.7371 102.493 48.3318 102.632C47.9371 102.781 47.4838 102.856 46.9718 102.856ZM49.0998 89.016C48.7478 89.016 48.4651 88.9147 48.2518 88.712C48.0384 88.5093 47.9318 88.2267 47.9318 87.864C47.9318 87.4693 48.0438 87.176 48.2678 86.984C48.4918 86.7813 48.7744 86.68 49.1158 86.68C49.4464 86.68 49.7184 86.776 49.9318 86.968C50.1558 87.16 50.2678 87.4533 50.2678 87.848C50.2678 88.232 50.1558 88.5253 49.9318 88.728C49.7078 88.92 49.4304 89.016 49.0998 89.016ZM55.7906 99.176C55.044 99.176 54.3826 99.016 53.8066 98.696C53.2306 98.3653 52.7826 97.88 52.4626 97.24C52.1426 96.6 51.9826 95.816 51.9826 94.888C51.9826 93.9387 52.148 93.1227 52.4786 92.44C52.82 91.7573 53.2946 91.2347 53.9026 90.872C54.5213 90.4987 55.252 90.312 56.0946 90.312C56.8946 90.312 57.5453 90.4773 58.0466 90.808C58.5586 91.128 58.9373 91.5707 59.1826 92.136C59.428 92.7013 59.5506 93.3413 59.5506 94.056C59.5506 94.216 59.5453 94.376 59.5346 94.536C59.524 94.696 59.5026 94.872 59.4706 95.064H53.5186V93.848H57.7906L57.5666 93.992C57.5773 93.5653 57.5293 93.1813 57.4226 92.84C57.3266 92.4987 57.156 92.2267 56.9106 92.024C56.6653 91.8213 56.34 91.72 55.9346 91.72C55.476 91.72 55.0973 91.848 54.7986 92.104C54.5106 92.36 54.2973 92.7067 54.1586 93.144C54.0306 93.5813 53.9666 94.0773 53.9666 94.632C53.9666 95.24 54.0466 95.7787 54.2066 96.248C54.3666 96.7067 54.6173 97.0693 54.9586 97.336C55.3 97.6027 55.732 97.736 56.2546 97.736C56.628 97.736 57.0333 97.6667 57.4706 97.528C57.908 97.3893 58.3613 97.176 58.8306 96.888L59.4866 97.928C58.8786 98.344 58.26 98.6587 57.6306 98.872C57.0013 99.0747 56.388 99.176 55.7906 99.176ZM64.5243 99.176C63.7989 99.176 63.1483 99.0053 62.5723 98.664C61.9963 98.3227 61.5429 97.8267 61.2122 97.176C60.8816 96.5253 60.7163 95.7413 60.7163 94.824C60.7163 94.0027 60.8336 93.3093 61.0683 92.744C61.3029 92.168 61.6176 91.704 62.0123 91.352C62.4176 90.9893 62.8709 90.728 63.3723 90.568C63.8843 90.3973 64.4069 90.312 64.9403 90.312C65.4203 90.312 65.9163 90.376 66.4283 90.504C66.9403 90.6213 67.3669 90.7707 67.7083 90.952L67.6443 93.176H66.3963L66.1723 91.8L66.3323 91.944C66.1296 91.8587 65.9003 91.7947 65.6443 91.752C65.3989 91.7093 65.1749 91.688 64.9723 91.688C64.4816 91.688 64.0656 91.816 63.7243 92.072C63.3936 92.3173 63.1429 92.664 62.9723 93.112C62.8016 93.56 62.7163 94.0933 62.7163 94.712C62.7163 95.3733 62.8069 95.928 62.9883 96.376C63.1803 96.824 63.4469 97.1653 63.7883 97.4C64.1296 97.6347 64.5189 97.752 64.9563 97.752C65.3083 97.752 65.6869 97.6773 66.0923 97.528C66.4976 97.3787 66.9189 97.16 67.3563 96.872L67.9963 97.864C67.4203 98.312 66.8389 98.6427 66.2523 98.856C65.6656 99.0693 65.0896 99.176 64.5243 99.176ZM71.7391 99.176C71.0671 99.176 70.5498 98.9733 70.1871 98.568C69.8245 98.152 69.6431 97.5333 69.6431 96.712V91.512L69.9151 91.784H68.3311V90.744L69.9311 90.424L69.6431 90.76V88.6L71.5791 88.264V90.76L71.3551 90.488H73.8191L73.7871 91.784H71.3551L71.5791 91.512V96.456C71.5791 96.9147 71.6591 97.2453 71.8191 97.448C71.9791 97.6507 72.2085 97.752 72.5071 97.752C72.6885 97.752 72.8858 97.72 73.0991 97.656C73.3125 97.592 73.5418 97.512 73.7871 97.416L74.1551 98.472C73.3125 98.9413 72.5071 99.176 71.7391 99.176ZM76.8755 92.6C76.8755 92.8773 76.9822 93.1013 77.1955 93.272C77.4088 93.432 77.6808 93.5707 78.0115 93.688C78.3528 93.7947 78.7155 93.9067 79.0995 94.024C79.4835 94.1413 79.8408 94.2907 80.1715 94.472C80.5128 94.6533 80.7902 94.8987 81.0035 95.208C81.2168 95.5173 81.3235 95.9173 81.3235 96.408C81.3235 97.0053 81.1582 97.512 80.8275 97.928C80.5075 98.3333 80.0648 98.6427 79.4995 98.856C78.9448 99.0693 78.3155 99.176 77.6115 99.176C77.2062 99.176 76.7742 99.1387 76.3155 99.064C75.8675 99 75.4035 98.904 74.9235 98.776L75.0195 96.44H76.2355L76.4115 97.896L76.2195 97.672C76.4542 97.736 76.6995 97.7893 76.9555 97.832C77.2222 97.864 77.4568 97.88 77.6595 97.88C77.9582 97.88 78.2355 97.8373 78.4915 97.752C78.7582 97.6667 78.9768 97.5387 79.1475 97.368C79.3182 97.1973 79.4035 96.984 79.4035 96.728C79.4035 96.44 79.2968 96.216 79.0835 96.056C78.8702 95.8853 78.5928 95.7413 78.2515 95.624C77.9208 95.5067 77.5688 95.3893 77.1955 95.272C76.8222 95.1547 76.4648 95.0053 76.1235 94.824C75.7928 94.632 75.5208 94.3813 75.3075 94.072C75.0942 93.7627 74.9875 93.3573 74.9875 92.856C74.9875 92.2587 75.1368 91.7733 75.4355 91.4C75.7342 91.0267 76.1288 90.7547 76.6195 90.584C77.1208 90.4027 77.6595 90.312 78.2355 90.312C78.6408 90.312 79.0782 90.3547 79.5475 90.44C80.0168 90.5147 80.5022 90.6267 81.0035 90.776L80.9235 92.808H79.6915L79.4355 91.544L79.7075 91.832C79.1848 91.6827 78.7208 91.608 78.3155 91.608C77.8888 91.608 77.5422 91.6987 77.2755 91.88C77.0088 92.0613 76.8755 92.3013 76.8755 92.6Z" fill="black"/>
<mask id="path-4-outside-1_196_2693" maskUnits="userSpaceOnUse" x="101" y="22" width="29" height="29" fill="black">
<rect fill="white" x="101" y="22" width="29" height="29"/>
<path fill-rule="evenodd" clip-rule="evenodd" d="M114 24C112.343 24 111 25.3431 111 27V32L106 32C104.343 32 103 33.3431 103 35V38C103 39.6569 104.343 41 106 41H111V46C111 47.6569 112.343 49 114 49H117C118.657 49 120 47.6569 120 46V41H125C126.657 41 128 39.6569 128 38V35C128 33.3431 126.657 32 125 32L120 32V27C120 25.3431 118.657 24 117 24H114Z"/>
</mask>
<path fill-rule="evenodd" clip-rule="evenodd" d="M114 24C112.343 24 111 25.3431 111 27V32L106 32C104.343 32 103 33.3431 103 35V38C103 39.6569 104.343 41 106 41H111V46C111 47.6569 112.343 49 114 49H117C118.657 49 120 47.6569 120 46V41H125C126.657 41 128 39.6569 128 38V35C128 33.3431 126.657 32 125 32L120 32V27C120 25.3431 118.657 24 117 24H114Z" fill="black"/>
<path d="M111 32L111 34L113 34V32H111ZM106 32L106 30H106V32ZM111 41H113V39H111V41ZM120 41V39H118V41H120ZM125 32L125 34H125V32ZM120 32H118V34L120 34L120 32ZM113 27C113 26.4477 113.448 26 114 26V22C111.239 22 109 24.2386 109 27H113ZM113 32V27H109V32H113ZM106 34L111 34L111 30L106 30L106 34ZM105 35C105 34.4477 105.448 34 106 34V30C103.239 30 101 32.2386 101 35H105ZM105 38V35H101V38H105ZM106 39C105.448 39 105 38.5523 105 38H101C101 40.7614 103.239 43 106 43V39ZM111 39H106V43H111V39ZM113 46V41H109V46H113ZM114 47C113.448 47 113 46.5523 113 46H109C109 48.7614 111.239 51 114 51V47ZM117 47H114V51H117V47ZM118 46C118 46.5523 117.552 47 117 47V51C119.761 51 122 48.7614 122 46H118ZM118 41V46H122V41H118ZM125 39H120V43H125V39ZM126 38C126 38.5523 125.552 39 125 39V43C127.761 43 130 40.7614 130 38H126ZM126 35V38H130V35H126ZM125 34C125.552 34 126 34.4477 126 35H130C130 32.2386 127.761 30 125 30V34ZM120 34L125 34L125 30L120 30L120 34ZM118 27V32H122V27H118ZM117 26C117.552 26 118 26.4477 118 27H122C122 24.2386 119.761 22 117 22V26ZM114 26H117V22H114V26Z" fill="black" mask="url(#path-4-outside-1_196_2693)"/>
<mask id="path-6-outside-2_196_2693" maskUnits="userSpaceOnUse" x="100" y="21" width="29" height="29" fill="black">
<rect fill="white" x="100" y="21" width="29" height="29"/>
<path fill-rule="evenodd" clip-rule="evenodd" d="M113 23C111.343 23 110 24.3431 110 26V31L105 31C103.343 31 102 32.3431 102 34V37C102 38.6569 103.343 40 105 40H110V45C110 46.6569 111.343 48 113 48H116C117.657 48 119 46.6569 119 45V40H124C125.657 40 127 38.6569 127 37V34C127 32.3431 125.657 31 124 31L119 31V26C119 24.3431 117.657 23 116 23H113Z"/>
</mask>
<path fill-rule="evenodd" clip-rule="evenodd" d="M113 23C111.343 23 110 24.3431 110 26V31L105 31C103.343 31 102 32.3431 102 34V37C102 38.6569 103.343 40 105 40H110V45C110 46.6569 111.343 48 113 48H116C117.657 48 119 46.6569 119 45V40H124C125.657 40 127 38.6569 127 37V34C127 32.3431 125.657 31 124 31L119 31V26C119 24.3431 117.657 23 116 23H113Z" fill="#FF68A2"/>
<path d="M110 31L110 33L112 33V31H110ZM105 31L105 29H105V31ZM110 40H112V38H110V40ZM119 40V38H117V40H119ZM124 31L124 33H124V31ZM119 31H117V33L119 33L119 31ZM112 26C112 25.4477 112.448 25 113 25V21C110.239 21 108 23.2386 108 26H112ZM112 31V26H108V31H112ZM105 33L110 33L110 29L105 29L105 33ZM104 34C104 33.4477 104.448 33 105 33V29C102.239 29 100 31.2386 100 34H104ZM104 37V34H100V37H104ZM105 38C104.448 38 104 37.5523 104 37H100C100 39.7614 102.239 42 105 42V38ZM110 38H105V42H110V38ZM112 45V40H108V45H112ZM113 46C112.448 46 112 45.5523 112 45H108C108 47.7614 110.239 50 113 50V46ZM116 46H113V50H116V46ZM117 45C117 45.5523 116.552 46 116 46V50C118.761 50 121 47.7614 121 45H117ZM117 40V45H121V40H117ZM124 38H119V42H124V38ZM125 37C125 37.5523 124.552 38 124 38V42C126.761 42 129 39.7614 129 37H125ZM125 34V37H129V34H125ZM124 33C124.552 33 125 33.4477 125 34H129C129 31.2386 126.761 29 124 29V33ZM119 33L124 33L124 29L119 29L119 33ZM117 26V31H121V26H117ZM116 25C116.552 25 117 25.4477 117 26H121C121 23.2386 118.761 21 116 21V25ZM113 25H116V21H113V25Z" fill="black" mask="url(#path-6-outside-2_196_2693)"/>
</svg>
